<svg width="60" height="60" viewBox="0 0 60 60" fill="none" xmlns="http://www.w3.org/2000/svg">
<path fill-rule="evenodd" clip-rule="evenodd" d="M25.9771 0.218637C19.5944 1.07564 13.3471 4.1737 8.77459 8.74922C5.03486 12.4914 2.20223 17.4729 0.927456 22.5492C-2.3508 35.6032 3.24089 48.9899 14.866 55.9187C21.3861 59.805 29.5688 60.9908 37.1803 59.1527C42.3577 57.9023 47.3998 55.0579 51.2266 51.2287C55.0533 47.3995 57.8958 42.3541 59.1454 37.1733C61.4929 27.44 58.9348 17.2348 52.3241 9.96069C47.2251 4.35022 40.6107 0.945975 33.2271 0.132143C31.3495 -0.0748183 27.8515 -0.0331995 25.9771 0.218637ZM32.9441 2.53825C39.3743 3.2452 45.3048 6.16021 49.8126 10.8296C52.0485 13.1458 53.5509 15.3052 54.8989 18.1403C60.0055 28.88 57.7078 41.5441 49.1526 49.8138C46.8379 52.0512 44.6799 53.5545 41.8466 54.9035C32.4352 59.3843 21.4546 58.2032 13.0976 51.8115C11.8914 50.8889 9.60798 48.6504 8.60129 47.4034C4.61979 42.4719 2.4167 36.2694 2.4167 29.9915C2.4167 23.7136 4.61979 17.5111 8.60129 12.5796C9.60798 11.3326 11.8914 9.09406 13.0976 8.1715C17.0761 5.12852 22.0738 3.08963 26.8908 2.54405C28.4457 2.36795 31.37 2.36512 32.9441 2.53825ZM26.6786 4.52477C15.1222 6.17437 6.29549 14.8986 4.61809 26.329C4.33332 28.2698 4.33332 31.7132 4.61809 33.654C6.14681 44.071 13.7318 52.4138 23.9907 54.9619C27.4679 55.8256 32.5384 55.8256 36.0155 54.9619C45.3163 52.6518 52.561 45.4687 54.8926 36.2456C55.8503 32.4568 55.8503 27.5262 54.8926 23.7374C52.3415 13.6457 43.9788 6.10302 33.6632 4.5896C32.0387 4.35135 28.1468 4.31511 26.6786 4.52477ZM32.0261 11.8542C33.0395 12.4809 33.5026 13.7947 33.6295 16.4017C33.6914 17.6729 33.5656 19.6734 33.0559 25.5323C32.6968 29.6588 32.3099 33.5114 32.1959 34.0935C31.7903 36.1665 31.0238 37.019 29.6956 36.8743C29.332 36.8347 28.907 36.7227 28.7514 36.6255C28.3399 36.3682 27.9197 35.5459 27.6697 34.5086C27.391 33.352 26.4619 20.1651 26.4238 16.8264C26.3975 14.5069 26.4165 14.3039 26.7216 13.6413C27.4563 12.0455 28.5376 11.4222 30.4417 11.497C31.254 11.529 31.6415 11.6164 32.0261 11.8542ZM31.1892 41.4878C31.5679 41.5993 32.048 41.934 32.5629 42.4451C33.2063 43.0844 33.388 43.3726 33.5356 43.9882C33.8969 45.4955 33.4339 46.9149 32.2985 47.7804C30.5066 49.1462 27.8328 48.6203 26.7493 46.689C26.4586 46.1709 26.3961 45.8696 26.3979 44.9969C26.4006 43.7513 26.6686 43.089 27.4942 42.2873C28.3994 41.4082 29.8516 41.0939 31.1892 41.4878Z" fill="white"/>
</svg>
