<svg width="60" height="60" viewBox="0 0 60 60" fill="none" xmlns="http://www.w3.org/2000/svg">
<path fill-rule="evenodd" clip-rule="evenodd" d="M26.31 0.239191C17.7074 1.34781 9.92503 6.1413 5.1704 13.2602C2.17204 17.7496 0.585258 22.2991 0.0983488 27.8023C-0.508083 34.6576 1.71926 42.3008 5.97048 47.9529C10.1329 53.487 15.94 57.3661 22.7034 59.1305C27.1469 60.2898 32.8498 60.2898 37.2933 59.1305C40.6845 58.2458 43.7139 56.8937 46.5715 54.9893C49.4922 53.0428 51.9252 50.7463 54.0262 47.9529C58.2797 42.2978 60.5203 34.5944 59.8972 27.7682C59.4095 22.4248 57.8699 17.8805 55.1367 13.7171C48.7731 4.02408 37.5735 -1.21227 26.31 0.239191ZM35.0861 5.21081C38.4534 5.92837 42.0146 7.48458 44.7702 9.44264C45.4857 9.95103 46.885 11.177 47.8799 12.1668C53.9566 18.2134 56.4954 26.8184 54.7283 35.3801C54.3662 37.1349 53.761 38.8797 52.8333 40.8442C51.4653 43.7408 49.9995 45.8057 47.697 48.0797C40.9076 54.7853 31.0466 57.0408 21.8628 53.9885C15.6479 51.9229 10.2593 47.1882 7.38255 41.2655C6.26406 38.9627 5.66253 37.2916 5.27588 35.4134C4.12408 29.8176 4.77068 24.2096 7.15494 19.1175C8.77601 15.6556 12.1347 11.627 15.2213 9.44264C18.5465 7.08928 22.6701 5.46051 26.7327 4.89574C28.5208 4.64735 33.2841 4.82694 35.0861 5.21081ZM16.6595 16.709C15.3638 18.0055 15.1396 18.3085 15.1396 18.7623C15.1396 19.0551 15.2208 19.4553 15.32 19.6518C15.4193 19.848 17.7512 22.2694 20.5022 25.0326L25.5037 30.0563L20.3217 35.252C15.6402 39.9456 15.1396 40.4991 15.1396 40.9809C15.1396 41.7653 15.4616 42.2643 16.8107 43.5713C18.0643 44.786 18.5757 45.0447 19.3442 44.8532C19.6361 44.7805 21.5787 42.9607 24.8958 39.6528L29.9983 34.5645L35.1009 39.6528C38.418 42.9607 40.3606 44.7805 40.6525 44.8532C41.4209 45.0447 41.9323 44.786 43.186 43.5713C44.5351 42.2643 44.8571 41.7653 44.8571 40.9809C44.8571 40.4991 44.3564 39.9456 39.6751 35.252L34.493 30.0563L39.408 25.1143C42.1113 22.396 44.4431 19.9902 44.5901 19.7679C44.7369 19.5459 44.8571 19.1089 44.8571 18.7969C44.8571 18.2995 44.6708 18.0436 43.3372 16.709C41.8796 15.2501 41.788 15.1879 41.098 15.1879H40.3786L35.1884 20.3729L29.9983 25.5579L24.8082 20.3729L19.6181 15.1879H18.8987C18.2087 15.1879 18.1171 15.2501 16.6595 16.709Z" fill="#F33B3B"/>
</svg>
