<svg width="365" height="92" viewBox="0 0 365 92" fill="none" xmlns="http://www.w3.org/2000/svg">
<g clip-path="url(#clip0_3_48)">
<path d="M233.135 73.3276C233.418 72.957 233.785 72.6574 234.206 72.4529C234.627 72.2484 235.09 72.1445 235.559 72.1497C237.622 72.1497 238.726 73.9627 238.726 75.8473C238.754 76.4024 238.668 76.9572 238.473 77.4782C238.278 77.9992 237.979 78.4753 237.593 78.8778C237.207 79.2802 236.742 79.6004 236.228 79.819C235.713 80.0376 235.159 80.15 234.599 80.1493C233.846 80.1117 233.098 79.9915 232.371 79.7908L231.226 80.18V70.9616L230.195 69.7529L233.166 68.8516L233.135 73.3276ZM233.135 78.3875C233.391 78.688 233.706 78.9337 234.06 79.1097C234.415 79.2858 234.802 79.3886 235.198 79.4118C236.59 79.4118 236.828 78.3875 236.828 77.2301C236.828 74.7821 235.858 73.2764 234.424 73.2764C233.958 73.3073 233.51 73.4708 233.135 73.7476V78.3875Z" fill="white"/>
<path d="M243.254 72.3136L242.099 73.3378L243.76 77.4349L243.956 77.9778L245.864 73.3891L244.709 72.3648H247.577L246.648 73.3891L242.955 82.1363L244.1 83.4884H240.696L242.037 81.9417L242.976 79.8215L240.108 73.5529L239.076 72.2828L243.254 72.3136Z" fill="white"/>
<path d="M254.622 80.0058H251.383L252.6 78.5001V70.8796L251.239 69.251H254.333L258.098 77.0969L261.492 69.251H264.804L263.628 70.5313V78.3568L264.814 80.0058H260.244L261.575 78.3772V70.7874L257.449 80.1902H257.335L253.271 71.996V78.4694L254.622 80.0058Z" fill="white"/>
<path d="M274.139 70.603L272.798 69.251H276.099L274.996 70.6747L271.21 80.3541H270.457L266.279 70.2035L265.454 69.2817H269.776L268.507 70.2343L271.303 77.0969L271.509 77.8344L274.139 70.603Z" fill="white"/>
<path d="M277.977 78.3465V70.9103L276.811 69.251H280.587C282.113 69.251 284.981 69.5173 284.981 72.1189C284.981 74.0548 283.135 75.1917 281.474 75.3454C280.992 75.4103 280.506 75.4445 280.019 75.4478V78.3465L281.433 80.0058H276.791L277.977 78.3465ZM280.04 74.9152C280.397 74.9375 280.755 74.8869 281.092 74.7665C281.429 74.6461 281.737 74.4584 281.998 74.2151C282.259 73.9718 282.467 73.678 282.609 73.3519C282.751 73.0257 282.824 72.6741 282.824 72.3187C282.824 71.9633 282.751 71.6116 282.609 71.2855C282.467 70.9593 282.259 70.6655 281.998 70.4222C281.737 70.1789 281.429 69.9913 281.092 69.8709C280.755 69.7505 280.397 69.6999 280.04 69.7221V74.9152Z" fill="white"/>
<path d="M288.839 72.3136H293.028L291.882 73.3379L293.543 77.4349L293.729 77.9778L295.142 74.5977L294.73 73.6554L293.698 72.3853H297.824L296.69 73.4096L298.33 77.5066L298.526 77.8549L300.228 73.4608L299.093 72.4365H301.909L300.971 73.4608L298.123 80.3541H297.773L295.524 75.2942L293.275 80.3541H292.966L289.871 73.5837L288.839 72.3136Z" fill="white"/>
<path d="M305.478 80.1901C305.004 80.1886 304.535 80.0901 304.1 79.9006C303.665 79.7111 303.275 79.4348 302.953 79.0888C302.63 78.7429 302.383 78.3347 302.227 77.8898C302.07 77.4449 302.008 76.9727 302.043 76.5028C302.021 75.928 302.117 75.3547 302.325 74.8181C302.534 74.2815 302.851 73.7929 303.257 73.3823C303.662 72.9718 304.148 72.6479 304.685 72.4306C305.221 72.2134 305.797 72.1073 306.376 72.1189C306.848 72.1233 307.314 72.2236 307.745 72.4137C308.177 72.6038 308.564 72.8796 308.884 73.2241C309.204 73.5686 309.45 73.9746 309.605 74.4169C309.761 74.8593 309.824 75.3286 309.79 75.796C309.816 76.3703 309.723 76.9436 309.516 77.4807C309.31 78.0178 308.995 78.5072 308.591 78.9189C308.187 79.3306 307.703 79.6558 307.167 79.8744C306.632 80.093 306.057 80.2005 305.478 80.1901ZM304.055 75.0688C304.055 77.5168 304.952 79.5858 306.345 79.5858C307.511 79.5858 307.82 78.0494 307.82 77.23C307.82 74.782 306.902 72.713 305.509 72.713C304.117 72.713 304.055 74.1367 304.055 75.079V75.0688Z" fill="white"/>
<path d="M317.29 75.0894C316.588 73.4403 315.66 72.8872 314.928 72.8872C313.845 72.8872 313.845 73.6759 313.845 75.2737V78.6538L315.309 80.0059H310.771L311.946 78.6538V73.5325L310.915 72.3239H317.465V75.0996L317.29 75.0894Z" fill="white"/>
<path d="M321.035 76.2058L323.665 73.553L322.984 72.3136H326.378V72.416L324.738 73.3788L322.458 75.4274L325.553 78.8894L326.842 79.9137V80.0571H324.036L323.593 79.3708L321.066 76.4004V78.705L322.231 80.0571H317.991L319.167 78.705V70.9616L318.136 69.7529L321.107 68.8516L321.035 76.2058Z" fill="white"/>
<path d="M327.327 77.0354C327.506 77.7044 327.885 78.3041 328.413 78.7556C328.941 79.2071 329.595 79.4894 330.288 79.5654C330.938 79.5654 331.474 79.2479 331.474 78.5411C331.474 76.6872 327.276 77.5885 327.276 74.444C327.299 74.1263 327.386 73.8165 327.533 73.5332C327.679 73.2498 327.882 72.9987 328.128 72.795C328.375 72.5913 328.66 72.4391 328.968 72.3476C329.275 72.256 329.598 72.227 329.916 72.2623H331.66L332.248 71.9346V74.5362H332.165C331.935 74.0471 331.58 73.6268 331.134 73.3175C330.689 73.0083 330.169 72.821 329.628 72.7745C329.49 72.7654 329.352 72.7857 329.222 72.834C329.093 72.8823 328.976 72.9574 328.878 73.0544C328.78 73.1514 328.705 73.2679 328.656 73.3963C328.607 73.5247 328.587 73.6619 328.596 73.7987C328.596 75.4171 332.929 74.7103 332.929 77.5885C332.929 79.4015 331.082 80.1082 329.834 80.1082C328.994 80.1284 328.157 80.0072 327.358 79.7498L327.224 76.9842L327.327 77.0354Z" fill="white"/>
<path d="M336.683 73.5529C336.962 73.1131 337.347 72.7489 337.802 72.4933C338.258 72.2376 338.77 72.0984 339.293 72.0882C339.626 72.0656 339.959 72.1166 340.269 72.2376C340.579 72.3585 340.858 72.5463 341.086 72.7874C341.314 73.0285 341.485 73.3169 341.588 73.6317C341.69 73.9466 341.72 74.28 341.676 74.6079V78.705L342.852 80.057H338.613L339.768 78.7255V75.1405C339.768 73.9319 339.593 73.1534 338.375 73.1534C338.036 73.158 337.704 73.2454 337.407 73.408C337.11 73.5705 336.858 73.8032 336.673 74.0855V78.6538L337.849 80.0058H333.609L334.775 78.6538V71.1151L333.743 69.9065L336.714 68.8822L336.683 73.5529Z" fill="white"/>
<path d="M347.082 80.1901C346.607 80.1886 346.138 80.0901 345.703 79.9006C345.269 79.7111 344.878 79.4348 344.556 79.0888C344.233 78.7429 343.986 78.3347 343.83 77.8898C343.674 77.4449 343.611 76.9727 343.646 76.5028C343.624 75.9297 343.719 75.3582 343.927 74.823C344.134 74.2878 344.449 73.8001 344.853 73.3899C345.256 72.9796 345.74 72.6553 346.274 72.4368C346.808 72.2183 347.381 72.1101 347.958 72.1189C348.432 72.1205 348.9 72.2188 349.334 72.4076C349.768 72.5965 350.158 72.8719 350.48 73.2167C350.802 73.5615 351.05 73.9684 351.207 74.4121C351.364 74.8559 351.428 75.3269 351.394 75.796C351.419 76.3703 351.326 76.9436 351.12 77.4807C350.913 78.0178 350.599 78.5072 350.195 78.9189C349.791 79.3306 349.306 79.6558 348.771 79.8744C348.235 80.093 347.66 80.2005 347.082 80.1901ZM345.648 75.0688C345.648 77.5168 346.556 79.5858 347.948 79.5858C349.114 79.5858 349.413 78.0494 349.413 77.23C349.413 74.782 348.505 72.713 347.113 72.713C345.72 72.713 345.648 74.1367 345.648 75.079V75.0688Z" fill="white"/>
<path d="M355.365 73.3276C355.646 72.9572 356.011 72.6576 356.431 72.453C356.85 72.2484 357.312 72.1445 357.779 72.1497C359.842 72.1497 360.946 73.9627 360.946 75.8473C360.974 76.4024 360.888 76.9572 360.693 77.4782C360.498 77.9992 360.199 78.4754 359.813 78.8778C359.427 79.2802 358.963 79.6004 358.448 79.819C357.933 80.0376 357.379 80.15 356.82 80.1493C356.327 80.1339 355.836 80.0722 355.355 79.9649V82.0135L356.82 83.3655H352.281L353.457 82.0135V74.0856L352.425 72.877L355.406 71.9858L355.365 73.3276ZM355.365 78.3875C355.621 78.6889 355.935 78.9353 356.29 79.1114C356.645 79.2875 357.032 79.3898 357.428 79.4118C358.821 79.4118 359.058 78.3875 359.058 77.2301C359.058 74.7821 358.027 73.2764 356.655 73.2764C356.184 73.2926 355.728 73.4458 355.345 73.7169L355.365 78.3875Z" fill="white"/>
<path d="M180.999 27.1842C181.319 27.1842 181.484 27.3685 181.484 27.7373V50.6092C181.486 50.6905 181.468 50.7709 181.432 50.8439C181.396 50.917 181.343 50.9805 181.278 51.0292C181.123 51.1436 180.934 51.2015 180.741 51.1931H176.275C176.111 51.2001 175.949 51.1685 175.8 51.1009C175.641 50.9994 175.504 50.867 175.398 50.7117L166.433 38.6458C166.351 38.5331 166.268 38.4921 166.206 38.5126C166.145 38.5331 166.103 38.5945 166.103 38.7072V50.4863C166.124 50.5817 166.122 50.6807 166.097 50.7751C166.072 50.8695 166.025 50.9566 165.959 51.0292C165.776 51.1582 165.552 51.2165 165.33 51.1931H160.925C160.378 51.1931 160.11 50.978 160.11 50.5478V27.9319C160.11 27.4402 160.347 27.1842 160.832 27.1842H166.083C166.302 27.173 166.52 27.2116 166.722 27.2968C166.91 27.4209 167.072 27.5811 167.197 27.768L175.016 38.5741C175.14 38.7687 175.264 38.8711 175.377 38.8711C175.491 38.8711 175.532 38.7277 175.532 38.4512V27.8704C175.521 27.775 175.533 27.6785 175.566 27.5882C175.599 27.498 175.652 27.4166 175.722 27.3502C175.792 27.2838 175.876 27.2343 175.968 27.2055C176.061 27.1767 176.158 27.1694 176.254 27.1842H180.999Z" fill="white"/>
<path d="M194.812 27.3788C194.869 27.3156 194.939 27.2654 195.017 27.2318C195.095 27.1982 195.18 27.1819 195.266 27.1842H212.637C213.029 27.1842 213.225 27.4197 213.225 27.8704V31.6193C213.225 32.2031 212.947 32.4899 212.41 32.4899H202.827C202.332 32.4899 202.074 32.705 202.074 33.1044V36.1773C202.074 36.6177 202.27 36.8328 202.662 36.8328H208.624C208.713 36.821 208.802 36.8295 208.887 36.8577C208.971 36.886 209.047 36.9332 209.11 36.9956C209.173 37.0581 209.221 37.1341 209.249 37.2178C209.278 37.3015 209.286 37.3906 209.274 37.4781V41.4215C209.274 41.7903 209.089 41.9746 208.697 41.9746H202.6C202.465 41.9677 202.332 42.0116 202.229 42.0975C202.178 42.1424 202.138 42.1978 202.111 42.2597C202.085 42.3217 202.072 42.3887 202.074 42.456V50.2917C202.088 50.4243 202.072 50.5583 202.027 50.6841C201.983 50.8099 201.911 50.9242 201.816 51.019C201.574 51.1729 201.288 51.2447 201.001 51.2238H195.565C195.318 51.2503 195.07 51.1805 194.874 51.0292C194.73 50.8578 194.659 50.6371 194.678 50.4146V27.9319C194.66 27.7379 194.707 27.5436 194.812 27.3788Z" fill="white"/>
<path d="M224.82 27.9319C224.817 27.8331 224.835 27.7348 224.872 27.6431C224.91 27.5514 224.966 27.4684 225.037 27.3993C225.116 27.3239 225.21 27.2658 225.313 27.2288C225.416 27.1917 225.526 27.1765 225.635 27.1842H245.121C245.232 27.1776 245.343 27.1932 245.448 27.2301C245.552 27.2671 245.648 27.3246 245.73 27.3993C245.867 27.5428 245.941 27.7343 245.936 27.9319V31.7524C245.936 32.1621 245.699 32.367 245.225 32.367H239.458C239.19 32.367 239.066 32.4797 239.066 32.6948V50.4864C239.076 50.6777 239.018 50.8664 238.901 51.019C238.841 51.0774 238.77 51.1231 238.692 51.153C238.614 51.183 238.531 51.1966 238.447 51.1931H232.258C231.866 51.1931 231.68 50.978 231.68 50.5478V32.8484C231.68 32.5514 231.556 32.3977 231.319 32.3977H225.583C225.078 32.3977 224.83 32.1929 224.83 31.7832L224.82 27.9319Z" fill="white"/>
<path d="M265.113 27.1842C265.495 27.1842 265.691 27.4197 265.691 27.8704V50.261C265.705 50.3936 265.689 50.5276 265.644 50.6534C265.6 50.7791 265.527 50.8935 265.433 50.9882C265.191 51.1421 264.905 51.214 264.618 51.1931H259.182C258.934 51.2195 258.687 51.1498 258.49 50.9985C258.346 50.8271 258.276 50.6064 258.294 50.3839V27.9319C258.286 27.7344 258.344 27.5399 258.459 27.3788C258.516 27.3156 258.586 27.2654 258.665 27.2318C258.743 27.1982 258.828 27.1819 258.913 27.1842H265.113Z" fill="white"/>
<path d="M278.214 51.0292C278.14 50.9401 278.085 50.8368 278.054 50.7258C278.022 50.6147 278.013 50.4984 278.028 50.3839V48.9295C278.014 48.6827 278.05 48.4356 278.132 48.2022C278.294 47.8752 278.491 47.5662 278.72 47.2804L288.757 33.043C288.808 32.9633 288.837 32.8713 288.839 32.7767C288.839 32.6436 288.695 32.5821 288.416 32.5821H279.782C279.579 32.6042 279.375 32.5452 279.215 32.4182C279.096 32.2363 279.045 32.0189 279.07 31.8036V27.8704C279.058 27.69 279.113 27.5114 279.225 27.3686C279.279 27.3082 279.346 27.2605 279.421 27.2286C279.496 27.1968 279.577 27.1816 279.658 27.1842H298.783C298.868 27.18 298.953 27.1943 299.031 27.2262C299.11 27.258 299.18 27.3066 299.237 27.3686C299.35 27.4995 299.409 27.6677 299.402 27.8397V29.4888C299.405 29.699 299.367 29.9078 299.289 30.1034C299.162 30.3515 299.014 30.588 298.845 30.8101L288.458 45.3752C288.417 45.4322 288.396 45.5002 288.396 45.5698C288.396 45.7337 288.55 45.8259 288.85 45.8259H298.526C299 45.8259 299.248 46.0308 299.248 46.4405V50.4863C299.251 50.5804 299.235 50.6741 299.202 50.762C299.168 50.85 299.117 50.9304 299.052 50.9985C298.972 51.0684 298.879 51.1217 298.778 51.1551C298.677 51.1885 298.57 51.2014 298.464 51.1931H278.864C278.635 51.2179 278.404 51.1597 278.214 51.0292Z" fill="white"/>
<path d="M312.565 27.1842H330.102C330.494 27.1842 330.69 27.4198 330.69 27.8705V31.6193C330.708 31.7351 330.7 31.8536 330.664 31.9654C330.629 32.0772 330.567 32.1793 330.485 32.2637C330.403 32.3481 330.303 32.4124 330.192 32.4517C330.08 32.4909 329.961 32.504 329.844 32.4899H320.065C319.57 32.4899 319.312 32.705 319.312 33.1045V35.8495C319.305 36.0311 319.363 36.2092 319.477 36.3514C319.53 36.4096 319.596 36.4554 319.669 36.4855C319.742 36.5156 319.821 36.5293 319.9 36.5256H325.769C326.223 36.5256 326.45 36.7406 326.45 37.1811V41.186C326.45 41.5547 326.254 41.7391 325.862 41.7391H319.838C319.77 41.7348 319.702 41.7444 319.638 41.7673C319.574 41.7902 319.516 41.8259 319.467 41.8722C319.417 41.9087 319.377 41.9567 319.35 42.012C319.323 42.0674 319.31 42.1284 319.312 42.1898V45.4265C319.302 45.5515 319.331 45.6766 319.394 45.785C319.481 45.8551 319.592 45.8883 319.704 45.8771H330.298C330.773 45.8771 331.01 46.082 331.01 46.4917V50.4761C331.016 50.5704 331.001 50.6648 330.967 50.7531C330.934 50.8414 330.881 50.9216 330.814 50.9883C330.737 51.0589 330.645 51.1127 330.546 51.1462C330.446 51.1798 330.341 51.1922 330.236 51.1829H312.803C312.556 51.2093 312.308 51.1396 312.111 50.9883C311.967 50.8169 311.897 50.5961 311.915 50.3737V27.9319C311.915 27.4403 312.122 27.1842 312.565 27.1842Z" fill="white"/>
<path d="M364.773 50.517C364.776 50.6056 364.762 50.6939 364.73 50.7766C364.698 50.8594 364.649 50.9348 364.587 50.9984C364.535 51.0652 364.467 51.1192 364.39 51.1564C364.314 51.1937 364.229 51.2132 364.144 51.2135H357.82C357.615 51.2252 357.413 51.1633 357.25 51.0392C357.087 50.9151 356.975 50.7371 356.933 50.5375L353.838 42.1897C353.779 42.0247 353.662 41.8865 353.508 41.8005C353.295 41.7026 353.062 41.6569 352.828 41.6673H351.321C351.266 41.6653 351.211 41.6763 351.161 41.6995C351.111 41.7226 351.067 41.7572 351.033 41.8005C350.977 41.864 350.941 41.9423 350.929 42.0258V50.2815C350.943 50.4141 350.927 50.5481 350.883 50.6738C350.838 50.7996 350.766 50.914 350.672 51.0087C350.429 51.1626 350.143 51.2345 349.857 51.2135H344.389C344.27 51.2291 344.149 51.2198 344.033 51.1863C343.918 51.1528 343.811 51.0958 343.719 51.0189C343.578 50.846 343.512 50.6254 343.533 50.4044V27.9319C343.533 27.4402 343.739 27.1841 344.152 27.1841H355.035C357.607 27.0335 360.165 27.6622 362.37 28.9869C363.206 29.536 363.886 30.2903 364.343 31.1767C364.801 32.0631 365.02 33.0517 364.979 34.0468C364.997 35.4632 364.583 36.8519 363.793 38.0312C363.044 39.1505 361.963 40.0099 360.698 40.4894C360.637 40.5164 360.586 40.5612 360.551 40.6179C360.516 40.6746 360.499 40.7405 360.502 40.807C360.509 40.9084 360.53 41.0083 360.564 41.104L364.691 50.1585C364.749 50.2689 364.777 50.3925 364.773 50.517ZM356.675 36.1772C356.901 35.9568 357.078 35.6913 357.194 35.3983C357.309 35.1052 357.361 34.7913 357.346 34.477C357.365 34.1272 357.303 33.7777 357.163 33.456C357.024 33.1343 356.811 32.8492 356.541 32.623C355.987 32.1716 355.287 31.9351 354.571 31.9573H351.703C351.497 31.9393 351.29 31.9897 351.115 32.1006C351.056 32.1693 351.01 32.2491 350.982 32.3352C350.954 32.4213 350.943 32.5122 350.95 32.6025V36.126C350.935 36.3088 350.978 36.4916 351.074 36.6484C351.128 36.7081 351.195 36.7541 351.27 36.7826C351.346 36.8111 351.427 36.8213 351.507 36.8123H354.767C355.459 36.8625 356.144 36.6419 356.675 36.1977V36.1772Z" fill="white"/>
<path d="M89.045 15.7534C88.5119 15.7518 87.9859 15.8757 87.5103 16.115C87.0347 16.3542 86.623 16.702 86.309 17.1297C85.9949 17.5575 85.7874 18.0531 85.7036 18.5759C85.6197 19.0987 85.6618 19.6338 85.8265 20.1373C89.1791 30.2059 91.4898 42.1284 85.8265 46.3586C76.8416 53.0676 55.7769 42.1489 44.9867 27.9217C38.8592 19.8402 35.7026 10.8779 35.8367 3.41095C35.8438 2.8544 35.7116 2.30482 35.4519 1.81158C35.1922 1.31834 34.8131 0.89689 34.3488 0.585112C33.8844 0.273333 33.3493 0.0809894 32.7916 0.0253652C32.2338 -0.0302591 31.6709 0.0525785 31.1534 0.266434C23.3472 3.51121 16.4826 8.64376 11.1851 15.1965C5.88764 21.7493 2.32555 29.514 0.823347 37.7833C-0.678855 46.0526 -0.0734167 54.5638 2.58451 62.5413C5.24243 70.5189 9.86836 77.7094 16.0409 83.4577C16.6619 84.0249 17.477 84.3361 18.3207 84.3283H19.8783C20.4626 84.3276 21.0367 84.1763 21.5443 83.8891C22.052 83.6019 22.4758 83.1886 22.7742 82.6899C23.0727 82.1912 23.2356 81.624 23.2469 81.044C23.2582 80.464 23.1177 79.891 22.8389 79.3811C15.391 65.3281 12.3788 45.4368 20.0537 39.7316C29.0283 33.0226 48.9376 47.6799 59.6969 61.9275C66.3815 70.7363 69.4762 80.5897 68.7437 88.4152C68.701 89.0084 68.8181 89.6021 69.0829 90.1355C69.3478 90.6689 69.7509 91.1227 70.2509 91.4501C70.7509 91.7776 71.3296 91.967 71.9277 91.9989C72.5258 92.0307 73.1216 91.9039 73.654 91.6314C80.1985 88.3397 85.9459 83.6776 90.4999 77.9667C95.0539 72.2557 98.3061 65.6319 100.032 58.552C101.758 51.4722 101.917 44.1048 100.497 36.9582C99.0775 29.8115 96.1136 23.0557 91.8096 17.1567C91.4933 16.7225 91.0778 16.3689 90.5973 16.125C90.1167 15.881 89.5847 15.7537 89.045 15.7534Z" fill="white"/>
</g>
<defs>
<clipPath id="clip0_3_48">
<rect width="365" height="92" fill="white"/>
</clipPath>
</defs>
</svg>
