<svg width="60" height="60" viewBox="0 0 60 60" fill="none" xmlns="http://www.w3.org/2000/svg">
<path fill-rule="evenodd" clip-rule="evenodd" d="M26.8041 0.169664C12.2189 1.75438 0.815828 13.8059 0.0448274 28.4502C-0.414611 37.1796 2.66559 45.1322 8.915 51.3506C12.8423 55.2585 17.1945 57.7469 22.6838 59.2226C25.21 59.9018 26.1368 60.0009 29.9704 60C33.7519 59.9994 34.77 59.8933 37.2909 59.2378C40.6558 58.3628 45.3447 56.149 47.8911 54.2337C50.0887 52.5801 53.4041 49.1039 54.9305 46.8523C60.5999 38.4885 61.5914 27.414 57.5144 17.9895C52.3894 6.14194 39.6853 -1.22956 26.8041 0.169664ZM37.1445 4.82037C48.3456 8.04401 56.178 18.4217 56.178 30.039C56.178 42.4325 47.5693 53.0965 35.4582 55.7053C32.5636 56.3289 27.4319 56.3386 24.6659 55.7258C14.7726 53.5343 7.12088 46.1997 4.59383 36.4857C3.677 32.9617 3.68519 27.1256 4.61168 23.6192C7.28427 13.5076 15.2593 6.15132 25.7245 4.14493C26.1271 4.06757 28.3672 4.04589 30.7024 4.09658C33.9686 4.1672 35.4549 4.33423 37.1445 4.82037ZM37.8766 16.6738C37.3934 16.9003 35.4189 18.6814 33.4886 20.6321L29.9795 24.1786L26.6073 20.8492C22.5462 16.8397 22.1473 16.5595 20.4964 16.5595C17.9011 16.5595 16.1363 18.526 16.4259 21.0951C16.5761 22.4292 16.7594 22.6716 20.3386 26.2609L24.0937 30.0273L23.0791 31.1162C22.521 31.7148 20.9108 33.3989 19.5011 34.8582C16.4423 38.0241 16.0066 39.0072 16.7726 41.0142C17.6645 43.3514 20.1462 44.4022 22.3271 43.3666C22.9189 43.0853 24.8803 41.2914 26.6852 39.3802L29.9669 35.9049L33.3361 39.2314C37.3858 43.2298 37.7955 43.5184 39.4203 43.5184C41.5691 43.5184 43.0027 42.4717 43.5339 40.5149C44.0695 38.5419 43.6048 37.7501 39.5635 33.7529L35.8418 30.0712L39.5448 26.2972C43.5998 22.1643 43.9942 21.4209 43.3222 19.1763C42.6862 17.0518 39.8505 15.749 37.8766 16.6738Z" fill="#F33B3B"/>
</svg>
