<svg xmlns="http://www.w3.org/2000/svg" width="619" height="242" fill="none" viewBox="0 0 619 242">
  <g clip-path="url(#a)">
    <path fill="#fff" d="M235.281 0h-21.748v8.955h21.748V0Zm30.704 0h-21.748v8.955h21.748V0Zm42.426 0h-21.748v8.955h21.748V0Zm30.704 0h-21.748v8.955h21.748V0Zm-94.878 8.955h-8.956v54.49h8.956V8.955Zm73.13 0h-8.956v54.49h8.956V8.955ZM151.849 54.49h-33.262v8.955h33.262V54.49ZM118.569 0h-8.955v54.49h8.955V0Zm87.036 54.49h-39.631v8.955h39.631V54.49Zm0-54.49h-39.631v8.955h39.631V0Zm-48.586 54.49h8.955V36.2h33.262v-8.955h-33.262V8.955h-8.955V54.49Zm182.401 80.882h8.955v-18.289h33.262v-8.956h-33.262v-18.29h-8.955v45.535Zm-108.603 0h8.956v-18.289h33.262v-8.956h-33.262v-18.29h-8.956v45.535ZM344.285 54.49h8.955V36.2h33.262v-8.955H353.24V8.955h-8.955V54.49Zm48.586 0H353.24v8.955h39.631V54.49Zm0-54.49H353.24v8.955h39.631V0Zm53.757 54.49h-39.632v8.955h39.632V54.49Zm0-54.49h-39.632v8.955h39.632V0Zm-39.632 8.955h-8.955V54.49h8.955V8.955Zm50.887 80.882h-8.956v45.535h8.956V89.837ZM104.372 0H64.74v8.955h39.632V0ZM64.74 8.955h-8.955v54.49h8.955V48.22l39.632-27.75V8.955L64.74 36.706V8.956ZM460.753 0h-8.956v27.245h8.956V0Zm39.631 0h-8.955v27.245h8.955V0Zm-39.631 36.2h-8.956v27.245h8.956V36.2Zm39.631 0h-8.955v27.245h8.955V36.2Zm-8.955-8.955h-30.676V36.2h30.676v-8.955ZM50.54 54.49H1.955v8.954h42.317l6.271-8.955h-.001V42.976L1.955 8.956v11.513L50.54 54.49ZM1.955 8.955h48.588V0H8.226L1.955 8.955Zm277.449 126.418h-39.631v8.955h39.631v-8.955Z"/>
    <path fill="#fff" d="M279.404 80.882h-39.631v8.956h39.631v-8.956Zm330.29 0h-30.655v8.956h30.655v-8.956Z"/>
    <path fill="#fff" d="M609.715 89.838v18.289h-30.676v-18.29h-8.955v54.491h8.955v-27.245h30.676v27.245h8.956v-54.49h-8.956Zm-221.708 45.535h-39.632v8.955h39.632v-8.955Zm0-54.491h-39.632v8.956h39.632v-8.956Zm-162.507 0h-39.632v8.955H225.5v-8.955Zm-48.587 63.446h8.955v-27.246h33.262v-8.955h-33.262v-18.29h-8.955v54.491Zm320.601-8.956h-39.631v8.955h39.631v-8.955Zm0-54.49h-39.631v8.955h39.631v-8.955Zm-397.62 54.491H69.218v8.955h30.676v-8.955Zm0-54.491H69.218v8.955h-8.956v45.535h8.956V89.838h30.676v45.534h8.955V89.837h-8.955v-8.955Zm454.473 54.491h-21.721v8.955h21.721v-8.955Zm-21.721-8.956h-8.955v8.955h8.955v-8.955Zm30.677-45.535h-8.956v54.49h8.956v-54.49Zm-552.413 0H1.955v63.446h8.955v-24.181l39.633-27.751V80.882L10.91 108.633V80.882Z"/>
    <path fill="#fff" d="m17.689 115.403 21.324 30.45h11.512l-21.317-30.45H17.689Zm314.999-34.521h-48.57v63.446h8.955v-24.18l39.633-27.751V80.882l-.018.012v-.012Zm-39.615 8.956h26.843l-26.843 18.795V89.838Z"/>
    <path fill="#fff" d="m299.852 115.403 21.324 30.45h11.512l-21.318-30.45h-11.518ZM127.543 80.882h-8.955v20.469l39.631 27.751v15.226h8.956v-20.47l-39.632-27.75V80.882Zm274.284 0h-8.956v20.469l39.632 27.751v15.226h8.955v-20.47l-39.631-27.75V80.882Z"/>
    <path fill="#fff" d="M127.543 107.646h-8.955v36.681h8.955v-36.681Zm39.631-26.764h-8.955v36.681h8.955v-36.68Zm349.756 0h-8.956v63.446h8.956V80.882Zm-115.103 26.764h-8.956v36.681h8.956v-36.681Zm39.631-26.764h-8.955v36.681h8.955v-36.68ZM1.074 166.149h2.977l7.46 14.499 2.31 4.693h.07a85.435 85.435 0 0 0-.227-3.59 44.286 44.286 0 0 1-.157-3.694v-11.908h2.766v22.974h-2.977l-7.459-14.498-2.311-4.693h-.07a75 75 0 0 0 .227 3.59c.105 1.203.158 2.4.158 3.59v12.011H1.074v-22.974Zm28.611 23.394a7.594 7.594 0 0 1-3.572-.841 8.223 8.223 0 0 1-2.784-2.398 11.62 11.62 0 0 1-1.821-3.783 17.814 17.814 0 0 1-.648-4.99 17.452 17.452 0 0 1 .648-4.955 11.24 11.24 0 0 1 1.821-3.712 8.026 8.026 0 0 1 2.784-2.329 7.878 7.878 0 0 1 3.572-.805 7.76 7.76 0 0 1 3.555.823 8.156 8.156 0 0 1 2.801 2.346 11.256 11.256 0 0 1 1.821 3.713c.451 1.6.67 3.257.648 4.92a17.835 17.835 0 0 1-.648 4.99 11.638 11.638 0 0 1-1.82 3.782 8.186 8.186 0 0 1-2.802 2.398c-1.1.564-2.32.852-3.555.841Zm0-2.557a4.468 4.468 0 0 0 2.381-.665 5.556 5.556 0 0 0 1.84-1.908 10.52 10.52 0 0 0 1.172-2.977 16.61 16.61 0 0 0 .42-3.905 16.225 16.225 0 0 0-.42-3.852 9.784 9.784 0 0 0-1.173-2.907 5.538 5.538 0 0 0-1.839-1.838 4.736 4.736 0 0 0-4.78 0 5.6 5.6 0 0 0-1.82 1.838 9.761 9.761 0 0 0-1.174 2.907 16.225 16.225 0 0 0-.42 3.852 16.61 16.61 0 0 0 .42 3.905c.237 1.046.632 2.05 1.174 2.977a5.61 5.61 0 0 0 1.82 1.908c.72.446 1.552.677 2.4.665Zm12.012-20.837h3.081l3.713 12.398c.396 1.378.758 2.65 1.085 3.817.327 1.167.701 2.428 1.12 3.782h.14a210.9 210.9 0 0 0 1.139-3.782c.175-.607.35-1.226.525-1.856l.543-1.961 3.677-12.398h2.977l-7.284 22.974h-3.397l-7.32-22.974Zm34.143 15.97h-8.334l-2.206 7.004h-2.977l7.74-22.974h3.291l7.74 22.974h-3.082l-2.171-7.004Zm-.734-2.347-1.086-3.502a267.342 267.342 0 0 1-1.156-3.834 340.294 340.294 0 0 1-1.12-3.905h-.14a330.222 330.222 0 0 1-1.12 3.905 269.88 269.88 0 0 1-1.157 3.834l-1.085 3.502h6.864Zm37.155-11.17h-7.564v-2.453h18.07v2.453h-7.564v20.521h-2.942v-20.521Zm28.016 20.521-5.533-9.701h-4.098v9.701h-2.906v-22.974h7.144a14.666 14.666 0 0 1 3.222.333 6.886 6.886 0 0 1 2.539 1.104 5.242 5.242 0 0 1 1.663 1.996c.423.946.627 1.976.595 3.012a6.329 6.329 0 0 1-1.401 4.306 7.135 7.135 0 0 1-3.747 2.207l5.849 10.016h-3.327Zm-9.63-12.082h3.817a6.592 6.592 0 0 0 4.115-1.103 3.977 3.977 0 0 0 1.418-3.344 3.487 3.487 0 0 0-1.418-3.187 7.647 7.647 0 0 0-4.115-.91h-3.817v8.544Zm29.241 5.078h-8.335l-2.206 7.004h-2.977l7.739-22.974h3.292l7.74 22.974h-3.082l-2.171-7.004Zm-.736-2.346-1.085-3.502a261.217 261.217 0 0 1-1.156-3.835 337.923 337.923 0 0 1-1.12-3.904h-.14a337.69 337.69 0 0 1-1.121 3.904 270.04 270.04 0 0 1-1.156 3.835l-1.085 3.502h6.863Zm10.086-13.624h5.603c3.478 0 6.122.981 7.932 2.943 1.81 1.961 2.714 4.775 2.714 8.44a16.13 16.13 0 0 1-.683 4.885 9.837 9.837 0 0 1-2.013 3.642 8.69 8.69 0 0 1-3.292 2.276c-1.442.55-2.976.817-4.518.789h-5.743v-22.975Zm5.428 20.592a7.084 7.084 0 0 0 5.866-2.416 10.581 10.581 0 0 0 1.944-6.794c0-2.918-.648-5.147-1.944-6.688-1.296-1.541-3.251-2.312-5.866-2.312h-2.521v18.21h2.521Zm15.933-.104h5.709v-18.035h-5.709v-2.453h14.359v2.453h-5.708v18.035h5.708v2.486h-14.359v-2.486Zm19.997-9c-.024-1.688.23-3.369.753-4.974a10.859 10.859 0 0 1 2.119-3.747 9.206 9.206 0 0 1 3.257-2.363 10.217 10.217 0 0 1 4.132-.823 7.685 7.685 0 0 1 3.677.84 9.46 9.46 0 0 1 2.591 1.961l-1.646 1.856a7.708 7.708 0 0 0-2.031-1.523 5.576 5.576 0 0 0-2.591-.578 6.822 6.822 0 0 0-2.994.648 6.395 6.395 0 0 0-2.294 1.856 8.677 8.677 0 0 0-1.453 2.924 13.517 13.517 0 0 0-.508 3.852 13.888 13.888 0 0 0 .508 3.905 8.834 8.834 0 0 0 1.453 2.959 6.487 6.487 0 0 0 2.294 1.891 6.66 6.66 0 0 0 2.994.665 5.76 5.76 0 0 0 2.801-.665 9.048 9.048 0 0 0 2.347-1.891l1.681 1.786a10.241 10.241 0 0 1-3.082 2.452c-1.219.6-2.564.9-3.922.875a9.865 9.865 0 0 1-4.01-.806 9.045 9.045 0 0 1-3.187-2.328 11.01 11.01 0 0 1-2.119-3.747 15.311 15.311 0 0 1-.77-5.025Zm22.027 9h5.709v-18.035h-5.709v-2.453h14.358v2.453h-5.708v18.035h5.708v2.486h-14.358v-2.486Zm22.413-2.662a7.03 7.03 0 0 0 2.276 2.276 5.074 5.074 0 0 0 2.592.735 4.545 4.545 0 0 0 3.624-1.312 6.248 6.248 0 0 0 1.138-4.15v-12.958h-9.63v-2.452h12.537v15.655a11.513 11.513 0 0 1-.386 3.029 6.31 6.31 0 0 1-1.277 2.469 6.152 6.152 0 0 1-2.347 1.664 9.242 9.242 0 0 1-3.589.612 8.458 8.458 0 0 1-3.8-.91 7.3 7.3 0 0 1-3.03-2.907l1.892-1.751Zm30.922-1.856h-8.334l-2.207 7.004h-2.977l7.739-22.974h3.292l7.74 22.974h-3.082l-2.171-7.004Zm-.735-2.346-1.086-3.502a273.93 273.93 0 0 1-1.155-3.835 337.69 337.69 0 0 1-1.121-3.904h-.14a318.87 318.87 0 0 1-2.276 7.739l-1.086 3.502h6.864Zm31.447 6.864h5.709v-18.035h-5.709v-2.453h14.358v2.453h-5.708v18.035h5.708v2.486H316.67v-2.486Zm20.592-20.488h2.976l7.46 14.499 2.311 4.693h.07a84.269 84.269 0 0 0-.228-3.59 44.544 44.544 0 0 1-.157-3.694v-11.908h2.767v22.974h-2.977l-7.459-14.498-2.312-4.693h-.07c.047 1.191.123 2.388.228 3.59.105 1.203.157 2.4.157 3.59v12.011h-2.766v-22.974Zm28.611 23.394a7.593 7.593 0 0 1-3.572-.841 8.22 8.22 0 0 1-2.784-2.398 11.632 11.632 0 0 1-1.822-3.783 17.854 17.854 0 0 1-.647-4.99 17.466 17.466 0 0 1 .647-4.955c.373-1.339.99-2.598 1.822-3.712a8.016 8.016 0 0 1 2.784-2.329 7.875 7.875 0 0 1 3.572-.805 7.757 7.757 0 0 1 3.554.823 8.163 8.163 0 0 1 2.802 2.346 11.258 11.258 0 0 1 1.821 3.713c.451 1.6.669 3.257.648 4.92a17.828 17.828 0 0 1-.648 4.99 11.654 11.654 0 0 1-1.821 3.782 8.178 8.178 0 0 1-2.802 2.398 7.635 7.635 0 0 1-3.554.841Zm0-2.557a4.47 4.47 0 0 0 2.381-.665 5.551 5.551 0 0 0 1.839-1.908c.54-.927.936-1.931 1.173-2.977.294-1.281.435-2.591.42-3.905a16.261 16.261 0 0 0-.42-3.852 9.771 9.771 0 0 0-1.173-2.907 5.543 5.543 0 0 0-1.839-1.838 4.735 4.735 0 0 0-4.78 0 5.602 5.602 0 0 0-1.821 1.838 9.771 9.771 0 0 0-1.173 2.907 16.158 16.158 0 0 0-.42 3.852 16.604 16.604 0 0 0 .42 3.905c.236 1.046.632 2.05 1.173 2.977a5.607 5.607 0 0 0 1.821 1.908c.72.446 1.552.677 2.399.665Zm12.011-20.837h3.082l3.712 12.398c.397 1.378.758 2.65 1.086 3.817.327 1.167.7 2.428 1.12 3.782h.14c.21-.676.409-1.324.596-1.944a197.787 197.787 0 0 0 1.068-3.694l.543-1.961 3.677-12.398h2.976l-7.284 22.974h-3.397l-7.319-22.974Zm34.144 15.97h-8.334l-2.207 7.004h-2.976l7.739-22.974h3.292l7.739 22.974h-3.082l-2.171-7.004Zm-.735-2.347-1.085-3.502a261.11 261.11 0 0 1-1.156-3.834 332.297 332.297 0 0 1-1.121-3.905h-.14a338.163 338.163 0 0 1-1.12 3.905 279.361 279.361 0 0 1-1.156 3.834l-1.086 3.502h6.864Zm9.42-2.135c-.024-1.688.23-3.369.753-4.974a10.859 10.859 0 0 1 2.119-3.747 9.206 9.206 0 0 1 3.257-2.363 10.22 10.22 0 0 1 4.132-.823 7.682 7.682 0 0 1 3.677.84 9.465 9.465 0 0 1 2.592 1.961l-1.646 1.856a7.74 7.74 0 0 0-2.031-1.523 5.582 5.582 0 0 0-2.592-.578 6.822 6.822 0 0 0-2.994.648 6.395 6.395 0 0 0-2.294 1.856 8.677 8.677 0 0 0-1.453 2.924 13.588 13.588 0 0 0-.508 3.852 13.888 13.888 0 0 0 .508 3.905 8.871 8.871 0 0 0 1.453 2.959 6.487 6.487 0 0 0 2.294 1.891 6.66 6.66 0 0 0 2.994.665 5.76 5.76 0 0 0 2.801-.665 9.048 9.048 0 0 0 2.347-1.891l1.681 1.786a10.23 10.23 0 0 1-3.082 2.452c-1.219.6-2.564.9-3.922.875a9.872 9.872 0 0 1-4.01-.806 9.063 9.063 0 0 1-3.187-2.328 11.01 11.01 0 0 1-2.119-3.747 15.311 15.311 0 0 1-.77-5.025Zm22.027 9h5.709v-18.035h-5.709v-2.453h14.359v2.453h-5.708v18.035h5.708v2.486H442.74v-2.486Zm22.413-2.662a7.05 7.05 0 0 0 2.276 2.276 5.077 5.077 0 0 0 2.592.735 4.558 4.558 0 0 0 3.625-1.312 6.259 6.259 0 0 0 1.138-4.15v-12.958h-9.631v-2.452h12.537v15.655a11.512 11.512 0 0 1-.385 3.029 6.312 6.312 0 0 1-1.278 2.469 6.152 6.152 0 0 1-2.347 1.664 9.242 9.242 0 0 1-3.589.612 8.46 8.46 0 0 1-3.8-.91 7.29 7.29 0 0 1-3.029-2.907l1.891-1.751Zm30.922-1.856h-8.334l-2.207 7.004h-2.976l7.739-22.974h3.292l7.739 22.974h-3.081l-2.172-7.004Zm-.735-2.347-1.086-3.502a273.819 273.819 0 0 1-1.155-3.834 332.297 332.297 0 0 1-1.121-3.905h-.14a338.163 338.163 0 0 1-1.12 3.905 279.361 279.361 0 0 1-1.156 3.834l-1.086 3.502h6.864ZM4.84 237.358a4.418 4.418 0 0 1-1.762-.35 3.743 3.743 0 0 1-1.379-1.011 4.177 4.177 0 0 1-.834-1.543l.144-.165-.082 2.862H0v-15.032h1.03v7.496l-.124-.185a3.87 3.87 0 0 1 1.473-2.029 4.153 4.153 0 0 1 2.46-.752 4.398 4.398 0 0 1 4.078 2.472 7.01 7.01 0 0 1 0 5.755 4.466 4.466 0 0 1-1.679 1.843 4.558 4.558 0 0 1-2.399.639Zm-.124-.907a3.443 3.443 0 0 0 2.77-1.194 5.725 5.725 0 0 0 .01-6.507 3.725 3.725 0 0 0-4.675-.648 3.626 3.626 0 0 0-1.318 1.554 6.109 6.109 0 0 0 0 4.716 3.58 3.58 0 0 0 1.308 1.544 3.442 3.442 0 0 0 1.905.535Zm15.588-9.596-4.983 12.19a6.06 6.06 0 0 1-.803 1.504 2.53 2.53 0 0 1-.968.792 3.03 3.03 0 0 1-1.236.238 3.224 3.224 0 0 1-1.122-.186 2.456 2.456 0 0 1-.855-.515l.33-.885c.195.239.451.421.742.525.284.102.583.154.885.154.422.006.835-.128 1.174-.38.446-.406.78-.921.967-1.494l.68-1.647-1.09-2.553-3.255-7.743h1.174l3.151 7.805.515 1.38.556-1.484 3.027-7.701h1.111Zm13.941-3.5a10.43 10.43 0 0 1 3.44.525 7.284 7.284 0 0 1 2.635 1.596l-1.833 2.698a7.72 7.72 0 0 0-1.967-1.225 5.796 5.796 0 0 0-2.295-.443 3.545 3.545 0 0 0-1.03.123 1.156 1.156 0 0 0-.567.34.754.754 0 0 0-.175.485.61.61 0 0 0 .402.535c.358.167.735.291 1.122.37l2.06.473a6.808 6.808 0 0 1 3.068 1.391 3.213 3.213 0 0 1 1.009 2.502 4.167 4.167 0 0 1-.772 2.573 4.64 4.64 0 0 1-2.111 1.545 8.398 8.398 0 0 1-3.027.515 12.528 12.528 0 0 1-2.605-.268c-.8-.164-1.579-.423-2.317-.772a7.373 7.373 0 0 1-1.812-1.204l1.812-2.78c.405.382.863.704 1.36.958a8.517 8.517 0 0 0 1.708.669c.57.16 1.159.243 1.75.247.33.008.66-.03.978-.114.21-.048.4-.16.546-.319a.766.766 0 0 0 .165-.494.692.692 0 0 0-.268-.567 2.655 2.655 0 0 0-1.01-.38l-2.264-.515a10.366 10.366 0 0 1-2.06-.68 3.773 3.773 0 0 1-1.513-1.205 3.35 3.35 0 0 1-.566-2.028 4.034 4.034 0 0 1 .72-2.369 4.687 4.687 0 0 1 2.1-1.605 8.56 8.56 0 0 1 3.317-.577Zm14.641.206a5.942 5.942 0 0 1 3.923 1.164 3.83 3.83 0 0 1 1.39 3.098 3.986 3.986 0 0 1-1.36 3.275 6.044 6.044 0 0 1-3.912 1.111l-.412.227h-2.471v4.715h-4.118v-13.59h6.96Zm-.68 6.012c.468.034.934-.085 1.328-.34a1.317 1.317 0 0 0 .443-1.122 1.353 1.353 0 0 0-.443-1.132 2.118 2.118 0 0 0-1.328-.35h-2.162v2.944h2.162Zm2.491.886 4.284 6.692h-4.592l-3.315-5.951 3.623-.741Zm5.603 6.693v-13.591h7.227a6.399 6.399 0 0 1 3.779.937 3.17 3.17 0 0 1 1.225 2.707 3.032 3.032 0 0 1-.71 2.019 3.44 3.44 0 0 1-2.214 1.07v.021a3.91 3.91 0 0 1 2.471 1.07c.537.582.825 1.351.803 2.142a3.174 3.174 0 0 1-1.225 2.697 6.096 6.096 0 0 1-3.697.927l-7.66.001Zm4.035-8.196h2.348c1.03 0 1.544-.405 1.544-1.215s-.515-1.215-1.544-1.214h-2.348v2.429Zm0 5.354h2.657c.423.032.844-.08 1.194-.32a1.103 1.103 0 0 0 .391-.916 1.089 1.089 0 0 0-.39-.906 1.911 1.911 0 0 0-1.195-.308h-2.657v2.45Zm14.455-10.749v13.59h-4.2v-13.59h4.2Zm13.385 0v8.175a5.429 5.429 0 0 1-1.565 4.139 6.278 6.278 0 0 1-4.489 1.482 6.817 6.817 0 0 1-3.45-.761 3.88 3.88 0 0 1-1.78-2.101 6.182 6.182 0 0 1-.206-3.048l4.139-.7a4.996 4.996 0 0 0 .134 2.647 1.384 1.384 0 0 0 1.349.752 1.366 1.366 0 0 0 1.276-.67c.305-.66.44-1.385.392-2.11v-7.805h4.2Zm.412 13.59 4.572-13.59h5.045l4.592 13.59h-4.324l-2.224-8.236-.577-2.225h-.041l-.556 2.205-2.286 8.256h-4.201Zm3.274-2.821v-2.718h7.681v2.718h-7.68Zm21.499-10.769v13.59h-4.201v-13.59h4.201Zm15.32 0v13.591h-4.613l-3.706-6.734-.865-1.833h-.041l.082 2.678v5.889h-3.665v-13.591h4.592l3.706 6.733.886 1.833h.021l-.083-2.676v-5.89h3.686Zm8.813-.207a7.441 7.441 0 0 1 3.635.834 5.659 5.659 0 0 1 2.327 2.4 9.138 9.138 0 0 1 0 7.537 5.643 5.643 0 0 1-2.327 2.398 8.337 8.337 0 0 1-7.269 0 5.676 5.676 0 0 1-2.358-2.398 9.03 9.03 0 0 1 0-7.537 5.686 5.686 0 0 1 2.358-2.4 7.51 7.51 0 0 1 3.634-.834Zm0 3.213a2.214 2.214 0 0 0-1.39.422 2.556 2.556 0 0 0-.823 1.246 8.185 8.185 0 0 0 0 4.232c.142.491.429.929.823 1.256a2.485 2.485 0 0 0 2.77 0 2.47 2.47 0 0 0 .824-1.256 8.495 8.495 0 0 0 0-4.232 2.47 2.47 0 0 0-.824-1.246c-.4-.29-.886-.439-1.38-.422Zm21.498-3.006-4.695 13.59h-4.984l-4.694-13.59h4.386l2.183 7.804.7 2.656.658-2.615 2.204-7.845h4.242Zm5.436 0v13.59h-4.2v-13.59h4.2Zm9.472 0a5.943 5.943 0 0 1 3.923 1.164 3.83 3.83 0 0 1 1.39 3.098 3.976 3.976 0 0 1-1.359 3.275 6.045 6.045 0 0 1-3.913 1.111l-.411.227h-2.472v4.715h-4.118v-13.59h6.96Zm-.68 6.012c.468.034.934-.085 1.328-.34a1.313 1.313 0 0 0 .443-1.122 1.343 1.343 0 0 0-.443-1.132 2.116 2.116 0 0 0-1.328-.35h-2.162v2.944h2.162Zm2.492.886 4.283 6.692h-4.592l-3.315-5.951 3.624-.741Zm4.284 6.692 4.571-13.59h5.045l4.593 13.59h-4.325l-2.224-8.236-.577-2.225h-.04l-.557 2.205-2.285 8.256h-4.201Zm3.274-2.821v-2.718h7.681v2.718h-7.681Zm19.913-9.471a.817.817 0 0 1-.652-1.226.82.82 0 0 1 .958-.362.82.82 0 0 1 .556.86.82.82 0 0 1-.234.49.857.857 0 0 1-.628.238Zm.514 1.997v10.296h-1.03v-10.296h1.03Zm16.556-3.295a7.295 7.295 0 0 1 2.976.546 4.115 4.115 0 0 1 1.874 1.586 5.314 5.314 0 0 1 0 5.086 4.121 4.121 0 0 1-1.874 1.586 7.294 7.294 0 0 1-2.976.544h-2.553v4.243h-4.2v-13.591h6.753Zm-.679 6.302a2.289 2.289 0 0 0 1.441-.403 1.718 1.718 0 0 0 .381-1.889 1.733 1.733 0 0 0-.381-.561 2.293 2.293 0 0 0-1.441-.401h-1.874v3.254h1.874Zm15.052-6.302a5.943 5.943 0 0 1 3.923 1.164 3.832 3.832 0 0 1 1.39 3.098 3.991 3.991 0 0 1-1.36 3.275 6.042 6.042 0 0 1-3.912 1.111l-.412.227h-2.471v4.715h-4.118v-13.59h6.96Zm-.68 6.012c.468.034.934-.085 1.328-.34a1.313 1.313 0 0 0 .443-1.122 1.36 1.36 0 0 0-.443-1.132 2.118 2.118 0 0 0-1.328-.35h-2.162v2.944h2.162Zm2.492.886 4.283 6.692h-4.592l-3.315-5.951 3.624-.741Zm5.602 6.692v-13.59h10.955v3.15h-6.755v2.204h5.395v2.924h-5.395v2.162h7.022v3.15h-11.222Zm19.17-13.59a6.363 6.363 0 0 1 4.86 1.771 8.386 8.386 0 0 1 0 10.038 6.337 6.337 0 0 1-4.86 1.782h-6.239v-13.591h6.239Zm-.514 10.522a2.329 2.329 0 0 0 2.12-.916 6.909 6.909 0 0 0 0-5.622 2.342 2.342 0 0 0-2.12-.916h-1.524v7.454h1.524Zm21.436-10.522v7.886a5.767 5.767 0 0 1-1.586 4.438 8.382 8.382 0 0 1-9.492 0 5.759 5.759 0 0 1-1.586-4.438v-7.886h4.222v8.113c-.05.662.14 1.32.535 1.853a2.339 2.339 0 0 0 3.171 0 2.763 2.763 0 0 0 .535-1.853v-8.113h4.201Zm4.839 11.923-.741-1.4h9.514v3.068h-11.985v-2.945l8.566-8.978.721 1.4h-9.184v-3.068h11.655v2.945l-8.546 8.978Zm27.161-11.923v13.59h-3.707v-5.436l.083-4.386h-.041l-2.986 9.822h-3.377l-2.945-9.822h-.062l.083 4.386v5.436h-3.707v-13.59h5.93l1.833 6.445.679 2.698h.042l.68-2.698 1.832-6.445h5.663Zm6.693 0v13.59h-4.201v-13.59h4.201Zm12.211 0v13.59h-4.201v-13.59h4.201Zm8.751 0a6.356 6.356 0 0 1 4.86 1.771 8.386 8.386 0 0 1 0 10.038 6.323 6.323 0 0 1-4.86 1.782h-6.239v-13.591h6.239Zm-.515 10.522a2.335 2.335 0 0 0 2.121-.916 6.909 6.909 0 0 0 0-5.622 2.342 2.342 0 0 0-2.121-.916h-1.523v7.454h1.523Zm9.041 3.068v-13.59h10.955v3.15h-6.755v2.204h5.395v2.924h-5.395v2.162h7.022v3.15h-11.222Zm23.763-13.59v8.175a5.429 5.429 0 0 1-1.565 4.139 6.277 6.277 0 0 1-4.489 1.482 6.82 6.82 0 0 1-3.45-.761 3.886 3.886 0 0 1-1.781-2.101 6.194 6.194 0 0 1-.206-3.048l4.139-.7a5.002 5.002 0 0 0 .134 2.647 1.379 1.379 0 0 0 1.349.752 1.362 1.362 0 0 0 1.276-.67c.306-.66.44-1.385.392-2.11v-7.805h4.201Zm14.641 0v7.886a5.769 5.769 0 0 1-1.586 4.438 8.386 8.386 0 0 1-9.493 0 5.759 5.759 0 0 1-1.586-4.438v-7.886h4.222v8.113c-.05.662.14 1.32.535 1.853a2.34 2.34 0 0 0 3.171 0 2.758 2.758 0 0 0 .536-1.853v-8.113h4.201Z"/>
  </g>
  <defs>
    <clipPath id="a">
      <path fill="#fff" d="M0 0h618.671v241.579H0z"/>
    </clipPath>
  </defs>
</svg>
