<svg width="60" height="60" viewBox="0 0 60 60" fill="none" xmlns="http://www.w3.org/2000/svg">
<path fill-rule="evenodd" clip-rule="evenodd" d="M9.4527 7.82039C13.1979 4.38503 18.3852 1.65877 23.3948 0.49312C25.3884 0.0291921 26.6736 -0.0533275 30.6599 0.0271169C34.8944 0.112261 35.8348 0.223894 38.1445 0.915056C44.9694 2.95748 50.9272 7.22908 54.6894 12.7773C65.2256 28.316 59.5162 49.257 42.582 57.1842C27.8466 64.0822 10.3043 57.8822 3.07856 43.2219C0.635928 38.2663 0.0160553 35.6051 0.000552327 30.0091C-0.0117768 25.5504 0.174258 24.2573 1.37445 20.4663C2.7619 16.0838 6.04157 10.9492 9.4527 7.82039ZM56.1061 28.269C55.4188 16.4238 46.9186 6.59926 35.2768 4.19362C33.9357 3.9167 31.64 3.73586 29.5715 3.7444C22.4627 3.774 16.5255 6.2419 11.4733 11.2672C8.06293 14.6594 5.763 18.6084 4.49066 23.2558C3.96613 25.1707 3.84723 26.3913 3.84723 29.8622C3.84723 35.0247 4.38727 37.3728 6.58222 41.7539C9.53461 47.6471 14.6335 52.2431 20.7403 54.5158C25.4116 56.254 31.2868 56.6151 36.0314 55.4553C48.5471 52.3958 56.8537 41.1463 56.1061 28.269ZM33.2316 15.9107C33.1047 13.3037 32.6415 11.9898 31.6281 11.3632C31.2435 11.1253 30.856 11.038 30.0438 11.006C28.1397 10.9311 27.0583 11.5544 26.3237 13.1502C26.0185 13.8129 25.9996 14.0159 26.0258 16.3353C26.0639 19.674 26.9931 32.861 27.2718 34.0175C27.5218 35.0549 27.942 35.8772 28.3535 36.1344C28.5091 36.2316 28.934 36.3436 29.2977 36.3833C30.6259 36.528 31.3924 35.6755 31.7979 33.6024C31.9119 33.0203 32.2989 29.1678 32.6579 25.0413C33.1677 19.1824 33.2934 17.1818 33.2316 15.9107ZM32.1649 41.9541C31.6501 41.4429 31.17 41.1083 30.7912 40.9967C29.4537 40.6029 28.0015 40.9172 27.0963 41.7963C26.2706 42.5979 26.0026 43.2603 25.9999 44.5059C25.9981 45.3786 26.0607 45.6798 26.3514 46.198C27.4349 48.1292 30.1087 48.6552 31.9005 47.2894C33.036 46.4238 33.499 45.0045 33.1376 43.4971C32.9901 42.8816 32.8083 42.5934 32.1649 41.9541Z" fill="white"/>
</svg>
