<svg width="60" height="60" viewBox="0 0 60 60" fill="none" xmlns="http://www.w3.org/2000/svg">
<path fill-rule="evenodd" clip-rule="evenodd" d="M23.3949 0.493098C18.3853 1.65877 13.198 4.38504 9.45281 7.8204C6.04162 10.9492 2.76191 16.0838 1.37448 20.4663C0.174311 24.2573 -0.0117754 25.5504 0.000552061 30.009C0.0161082 35.6051 0.636005 38.2662 3.07861 43.2219C10.3043 57.8821 27.8466 64.0822 42.5821 57.1842C59.5163 49.257 65.2257 28.316 54.6895 12.7773C50.9272 7.22905 44.9695 2.95746 38.1445 0.915031C35.8348 0.223848 34.8944 0.112272 30.6599 0.0271224C26.6737 -0.0533296 25.3885 0.0291777 23.3949 0.493098ZM35.2769 4.1936C46.9187 6.59923 55.4188 16.4238 56.1062 28.269C56.8538 41.1463 48.5471 52.3958 36.0315 55.4553C31.2869 56.6151 25.4116 56.254 20.7404 54.5158C14.6336 52.2431 9.5347 47.6471 6.58226 41.7538C4.38738 37.3727 3.84732 35.0246 3.84732 29.8622C3.84732 26.3913 3.96619 25.1707 4.4907 23.2557C5.76307 18.6083 8.06303 14.6594 11.4733 11.2672C16.5256 6.24189 22.4627 3.77401 29.5716 3.74436C31.64 3.73584 33.9358 3.91671 35.2769 4.1936ZM40.2739 18.2325C39.7051 18.6186 36.2883 21.9336 32.6813 25.5988L26.1231 32.2634L22.8458 28.8797C20.1713 26.1188 19.3682 25.4585 18.4818 25.2923C15.5435 24.7409 12.948 27.2243 13.4824 30.0754C13.6374 30.9016 14.6644 32.1565 18.4252 36.1169C21.0363 38.8664 23.5693 41.358 24.0544 41.654C25.183 42.3425 27.0377 42.3428 28.166 41.6543C29.5552 40.8069 45.7312 24.0773 46.1703 23.0335C47.6375 19.5491 43.4077 16.1049 40.2739 18.2325Z" fill="#1EDB31"/>
</svg>
